<svg viewBox="0 0 24 24" xmlns="http://www.w3.org/2000/svg"><path d="M10.9942371,4 C14.8570476,4 17.9884742,7.1314266 17.9884742,10.9942371 C17.9884742,12.7320284 17.3547056,14.3217952 16.3056938,15.5450121 L19.6195637,18.858691 C19.8296728,19.0688002 19.8296728,19.4094545 19.6195637,19.6195637 C19.4094545,19.8296728 19.0688002,19.8296728 18.858691,19.6195637 L18.858691,19.6195637 L15.5450121,16.3056938 C14.3217952,17.3547056 12.7320284,17.9884742 10.9942371,17.9884742 C7.1314266,17.9884742 4,14.8570476 4,10.9942371 C4,7.1314266 7.1314266,4 10.9942371,4 Z M10.9942371,5.07603647 C7.72570514,5.07603647 5.07603647,7.72570514 5.07603647,10.9942371 C5.07603647,14.262769 7.72570514,16.9124377 10.9942371,16.9124377 C14.262769,16.9124377 16.9124377,14.262769 16.9124377,10.9942371 C16.9124377,7.72570514 14.262769,5.07603647 10.9942371,5.07603647 Z"></path></svg>